<?xml version="1.0" encoding="UTF-8" standalone="no"?>
<svg xmlns="http://www.w3.org/2000/svg" xmlns:svg="http://www.w3.org/2000/svg" viewBox="0 0 800 800">
  <style>
    #m{fill:#ff001e;}
    #p{fill:#fff;}
    #w{fill:#fff;stroke-width:6.04745;opacity:0.7;}
    text,tspan {fill:#fff;fill-opacity:0.7;font-family:Verdana;font-variant:normal;font-style:normal;font-stretch:normal;font-weight:bold;font-size:72px;line-height:1.25;stroke:none;}
    @media(prefers-color-scheme: dark){#b{fill:#1e1e1e;}}
  </style>
  <path id="m" d="M0 0v800h800V0z"/>
  <path id="b" d="M0 560h800v240H0z"/>
  <path id="w" d="m 419.40355,628.38735 90.09839,-161.63492 0.42781,59.11365 189.62112,-0.42778 c 33.88242,-3.5913 63.5883,-17.36411 85.10074,-43.26426 -68.6577,140.4453 -88.43333,239.82156 -230.88616,239.88111 h -43.8357 l -0.42781,65.68199 z M 202.36794,723.48348 C 100.98902,692.65396 53.689099,567.75691 7.3213931,479.74649 c 21.2522099,19.32189 61.0234389,46.98065 84.1232279,46.98282 44.304139,0.10053 88.608499,0.18624 132.912129,0.27971 h 134.21939 l -0.42814,195.90278 -0.42911,0.57188 z M -9.2679955e-7,428.56885 64.793045,296.41771 1.6096251,261.71124 H 190.94483 l 91.52642,166.20365 -62.07111,-37.16651 c -19.90876,42.04107 -39.81739,84.08174 -59.72619,126.12259 -22.91288,-0.40091 -45.82453,-0.80151 -68.737079,-1.20216 C 47.259539,505.25218 16.177902,470.09329 -9.2679955e-7,428.56885 Z M 632.72644,514.87204 549.05379,360.66258 718.11306,258.28453 l 81.81638,163.919 c 2.47753,39.22817 -60.8589,93.818 -100.16996,93.39263 z M 137.82843,154.04972 224.20287,24.600445 c 83.7752,-31.201369 132.30334,36.157572 162.93085,78.617675 l -81.38826,156.20847 z m 327.26676,69.6799 C 447.72276,182.77363 424.51083,135.9256 395.48475,95.192196 369.49778,58.724189 338.09885,26.906394 314.3126,12.691107 l 218.46367,-0.428243 c 39.23302,3.521722 58.29619,26.394829 79.10271,57.685472 l 31.41347,55.258744 48.54774,-30.985404 -91.38318,162.777404 -197.04562,0.4285 z"/>
  <path id="p" d="M319.27 618.67h-171.2a2.07 2.07 0 0 0-2.28 2.27v115.3a2.09 2.09 0 0 0 2.28 2.29h171.2c50.29 0 75.67-16.71 75.67-60.31 0-43.3-25.38-59.55-75.67-59.55zm-44.33 97.83h-53.63c-1.52 0-1.83-.61-1.83-1.83v-72.16c0-1.2.31-1.82 1.83-1.82h53.63c31.89 0 44.66 9.11 44.66 37.83s-12.77 37.98-44.66 37.98zM665 733.67l-49.52-34.94c-1.22-.92-2-1.37-2-2s.46-.92 1.53-.92c25 0 44.5-11.69 44.5-37.51s-16.65-39.63-47.51-39.63H424.4a2.06 2.06 0 0 0-2.27 2.27v115.3a2.08 2.08 0 0 0 2.27 2.29h69a2.08 2.08 0 0 0 2.28-2.29V708.9c0-1.37.46-1.82 1.83-1.82h39.73c2 0 2.73.15 4.1 1.22l34.49 28.56a6.6 6.6 0 0 0 4.85 1.67h85.84q1.83 0 1.83-1.38c.04-1.21-2.09-2.57-3.35-3.48zm-107.54-48h-59.81c-1.37 0-1.83-.46-1.83-1.82v-41.34c0-1.36.46-1.82 1.83-1.82h59.85c20.06 0 28.56 5.48 28.56 22 0 16.74-8.5 22.97-28.56 22.97zM233 371.64a1.79 1.79 0 0 1-1.78 1.8h-45.15a1.79 1.79 0 0 1-1.78-1.8V118.87a1.79 1.79 0 0 1 1.78-1.8h45.13a1.79 1.79 0 0 1 1.78 1.8zm75.55 0a1.79 1.79 0 0 1-1.78 1.8h-45.13a1.79 1.79 0 0 1-1.78-1.8v-81.88a1.79 1.79 0 0 1 1.78-1.8h45.13a1.79 1.79 0 0 1 1.78 1.8zm75.57-21.36a1.79 1.79 0 0 1-1.78 1.8h-45.13a1.79 1.79 0 0 1-1.77-1.8V204.39a1.79 1.79 0 0 1 1.77-1.8h45.13a1.79 1.79 0 0 1 1.78 1.8zm75.57 106.85a1.79 1.79 0 0 1-1.78 1.8h-45.12a1.79 1.79 0 0 1-1.78-1.8V204.36a1.79 1.79 0 0 1 1.78-1.8h45.12a1.79 1.79 0 0 1 1.78 1.8zM535.26 393a1.79 1.79 0 0 1-1.78 1.8h-45.12a1.79 1.79 0 0 1-1.78-1.8V247.1a1.79 1.79 0 0 1 1.78-1.8h45.12a1.79 1.79 0 0 1 1.78 1.8zm75.58 0a1.8 1.8 0 0 1-1.78 1.8h-45.13a1.79 1.79 0 0 1-1.78-1.8V140.22a1.79 1.79 0 0 1 1.78-1.8h45.13a1.8 1.8 0 0 1 1.78 1.8z"/>
  <text x="20" y="795.51562">recycled</text>
</svg>